<svg xmlns="http://www.w3.org/2000/svg" viewBox="0 0 512 512">
  <defs>
    <linearGradient id="bg" x1="0%" x2="100%" y1="0%" y2="100%">
      <stop offset="0%" stop-color="#10242f" />
      <stop offset="100%" stop-color="#1f5568" />
    </linearGradient>
    <linearGradient id="accent" x1="0%" x2="100%" y1="0%" y2="100%">
      <stop offset="0%" stop-color="#f5c86f" />
      <stop offset="100%" stop-color="#ff8f4e" />
    </linearGradient>
  </defs>
  <rect width="512" height="512" rx="104" fill="url(#bg)" />
  <path
    d="M116 324c50-16 90-41 123-76 30-31 58-72 82-123l52 25c-26 57-58 104-95 140-41 41-92 70-153 87z"
    fill="url(#accent)"
  />
  <path
    d="M354 128h58v58h-24v-17l-76 76-40-40-82 82-17-17 99-99 40 40 59-59h-17z"
    fill="#f2eee3"
  />
  <circle cx="151" cy="353" r="18" fill="#f2eee3" opacity=".88" />
  <circle cx="225" cy="316" r="14" fill="#f2eee3" opacity=".7" />
  <circle cx="318" cy="218" r="12" fill="#f2eee3" opacity=".58" />
</svg>
